<svg id="svg" version="1.1" xmlns="http://www.w3.org/2000/svg" xmlns:xlink="http://www.w3.org/1999/xlink" width="400" height="70" viewBox="0, 0, 400,70"><g id="svgg"><path id="path0" d="M204.762 18.762 C 204.618 18.906,204.500 19.121,204.500 19.240 C 204.500 19.367,204.217 19.494,203.810 19.549 C 202.487 19.726,202.589 18.647,202.533 33.048 C 202.479 47.067,202.487 47.282,203.075 47.430 C 203.336 47.495,203.496 47.687,203.561 48.014 L 203.658 48.500 211.879 48.500 C 218.051 48.500,220.150 48.450,220.300 48.300 C 220.610 47.990,220.577 42.336,220.264 41.907 C 220.041 41.602,219.755 41.580,215.264 41.532 L 210.500 41.481 210.500 30.663 C 210.500 18.446,210.625 19.500,209.178 19.500 C 208.574 19.500,208.500 19.456,208.500 19.101 C 208.500 18.441,205.367 18.157,204.762 18.762 M231.762 18.762 C 231.618 18.906,231.500 19.131,231.500 19.262 C 231.500 19.448,231.213 19.500,230.181 19.500 C 228.747 19.500,227.500 20.251,227.500 21.113 C 227.500 21.405,227.372 21.470,226.663 21.538 C 225.637 21.637,225.637 21.637,225.540 22.644 C 225.462 23.456,225.457 23.462,224.791 23.551 C 223.834 23.680,223.637 23.956,223.540 25.310 C 223.461 26.425,223.435 26.485,223.020 26.533 C 222.662 26.574,222.574 26.681,222.531 27.125 C 222.500 27.446,222.351 27.735,222.163 27.835 C 221.058 28.426,221.217 39.167,222.331 39.167 C 222.424 39.167,222.500 39.382,222.500 39.646 C 222.500 40.585,222.695 41.126,223.100 41.311 C 223.360 41.429,223.500 41.633,223.500 41.892 C 223.500 42.800,223.707 43.337,224.095 43.434 C 224.348 43.498,224.517 43.697,224.587 44.016 C 224.667 44.379,224.789 44.500,225.076 44.500 C 225.368 44.500,225.482 44.619,225.558 45.000 C 225.637 45.392,225.746 45.500,226.066 45.500 C 226.381 45.500,226.498 45.611,226.581 45.990 C 226.663 46.363,226.795 46.492,227.135 46.532 C 227.425 46.565,227.602 46.700,227.643 46.917 C 227.729 47.376,227.966 47.494,228.804 47.497 C 229.382 47.499,229.625 47.600,230.026 48.000 C 230.475 48.450,230.631 48.500,231.577 48.500 C 232.486 48.500,232.640 48.545,232.714 48.831 C 232.969 49.804,239.029 49.811,239.284 48.839 C 239.354 48.570,239.542 48.507,240.392 48.466 C 241.367 48.419,241.419 48.395,241.469 47.966 C 241.518 47.543,241.577 47.513,242.469 47.466 C 243.365 47.419,243.420 47.392,243.469 46.958 C 243.519 46.530,243.574 46.500,244.311 46.500 C 245.146 46.500,245.500 46.292,245.500 45.800 C 245.500 45.622,245.622 45.500,245.800 45.500 C 246.184 45.500,246.500 45.184,246.500 44.800 C 246.500 44.635,246.607 44.500,246.738 44.500 C 247.193 44.500,247.500 43.992,247.500 43.238 C 247.500 42.529,247.520 42.500,248.000 42.500 C 248.445 42.500,248.500 42.445,248.500 41.996 C 248.500 41.619,248.600 41.454,248.894 41.342 C 249.417 41.143,249.495 40.772,249.498 38.469 L 249.500 36.522 249.958 36.469 L 250.417 36.417 250.462 33.538 L 250.508 30.660 250.004 30.559 L 249.500 30.458 249.497 28.271 C 249.495 25.959,249.447 25.743,248.918 25.642 C 248.701 25.601,248.556 25.407,248.500 25.081 C 248.433 24.688,248.319 24.572,247.958 24.531 C 247.522 24.480,247.500 24.435,247.500 23.586 C 247.500 22.730,247.480 22.689,247.000 22.583 C 246.647 22.506,246.500 22.375,246.500 22.139 C 246.500 21.922,246.328 21.740,246.012 21.620 C 245.744 21.519,245.447 21.266,245.352 21.058 C 245.219 20.765,244.990 20.655,244.340 20.568 C 243.611 20.472,243.500 20.407,243.500 20.080 C 243.500 19.589,243.230 19.500,241.736 19.500 C 240.543 19.500,240.500 19.486,240.500 19.101 C 240.500 18.520,240.351 18.500,235.998 18.500 C 232.607 18.500,231.985 18.538,231.762 18.762 M255.762 18.762 C 255.618 18.906,255.500 19.131,255.500 19.262 C 255.500 19.432,255.290 19.500,254.762 19.500 C 253.392 19.500,253.493 18.328,253.541 33.721 L 253.583 47.417 254.023 47.468 C 254.358 47.506,254.485 47.634,254.560 48.009 L 254.658 48.500 260.537 48.493 L 266.417 48.486 266.826 47.993 C 267.217 47.521,267.291 47.500,268.591 47.500 C 269.959 47.500,270.500 47.272,270.500 46.695 C 270.500 46.588,270.725 46.500,271.000 46.500 C 271.444 46.500,271.500 46.444,271.500 46.000 C 271.500 45.538,271.545 45.500,272.091 45.500 C 272.892 45.500,273.500 44.892,273.500 44.091 C 273.500 43.569,273.549 43.500,273.925 43.500 C 274.692 43.500,275.498 42.417,275.499 41.386 C 275.500 40.568,275.524 40.519,275.958 40.469 C 276.397 40.419,276.419 40.372,276.466 39.392 C 276.507 38.542,276.570 38.354,276.839 38.284 C 277.414 38.133,277.500 37.445,277.500 33.007 L 277.500 28.702 277.000 28.167 C 276.571 27.708,276.500 27.502,276.500 26.724 C 276.500 25.865,276.473 25.807,276.000 25.642 C 275.574 25.493,275.500 25.382,275.500 24.889 C 275.500 24.163,275.242 23.667,274.864 23.667 C 274.694 23.667,274.495 23.459,274.384 23.167 C 274.258 22.831,274.081 22.667,273.848 22.667 C 273.587 22.667,273.500 22.561,273.500 22.246 C 273.500 21.765,272.996 21.500,272.084 21.500 C 271.595 21.500,271.515 21.441,271.469 21.042 C 271.428 20.679,271.319 20.572,270.949 20.530 C 270.654 20.496,270.417 20.333,270.305 20.088 C 270.067 19.566,269.623 19.500,266.339 19.500 C 263.574 19.500,263.552 19.497,263.374 19.107 C 263.129 18.568,262.644 18.500,259.074 18.500 C 256.523 18.500,255.981 18.543,255.762 18.762 M281.974 18.612 C 281.822 18.652,281.653 18.863,281.599 19.081 C 281.529 19.359,281.361 19.494,281.041 19.531 L 280.583 19.583 280.537 33.667 C 280.512 41.412,280.532 47.919,280.582 48.125 L 280.673 48.500 290.253 48.500 C 301.816 48.500,300.502 48.922,300.496 45.208 C 300.491 41.256,300.961 41.500,293.344 41.500 L 287.500 41.500 287.500 39.500 L 287.500 37.500 292.224 37.500 C 297.583 37.500,297.500 37.521,297.500 36.195 C 297.500 35.637,297.559 35.500,297.800 35.500 C 298.366 35.500,298.500 35.146,298.500 33.647 C 298.500 31.918,298.424 31.667,297.899 31.667 C 297.570 31.667,297.500 31.582,297.500 31.184 C 297.500 30.501,297.493 30.500,292.236 30.500 L 287.500 30.500 287.500 28.000 L 287.500 25.500 293.800 25.500 C 298.478 25.500,300.151 25.449,300.300 25.300 C 300.439 25.161,300.500 24.278,300.500 22.401 C 300.500 19.378,300.553 19.500,299.236 19.500 C 298.571 19.500,298.500 19.462,298.500 19.101 C 298.500 18.882,298.381 18.657,298.236 18.601 C 297.940 18.487,282.405 18.498,281.974 18.612 M306.762 18.762 C 306.618 18.906,306.500 19.127,306.500 19.254 C 306.500 19.416,306.221 19.498,305.542 19.533 C 304.647 19.580,304.580 19.612,304.533 20.019 C 304.503 20.280,304.329 20.524,304.100 20.629 C 303.542 20.883,303.500 21.813,303.500 34.000 C 303.500 46.146,303.543 47.117,304.092 47.368 C 304.306 47.465,304.507 47.744,304.562 48.019 L 304.658 48.500 307.579 48.500 L 310.500 48.500 310.500 48.067 C 310.500 47.801,310.693 47.454,311.000 47.167 L 311.500 46.700 311.505 40.391 C 311.509 35.714,311.557 34.170,311.693 34.417 C 312.021 35.013,312.643 35.500,313.076 35.500 C 313.466 35.500,313.500 35.559,313.500 36.236 C 313.500 37.220,313.629 37.500,314.080 37.500 C 314.407 37.500,314.472 37.611,314.568 38.340 C 314.658 39.013,314.761 39.217,315.090 39.367 C 315.315 39.469,315.500 39.691,315.500 39.859 C 315.500 40.027,315.725 40.365,316.000 40.610 C 316.275 40.855,316.500 41.155,316.500 41.278 C 316.500 41.414,316.694 41.500,317.000 41.500 C 317.466 41.500,317.500 41.542,317.502 42.125 C 317.506 43.149,317.659 43.500,318.103 43.500 C 318.421 43.500,318.500 43.588,318.500 43.940 C 318.500 44.208,318.688 44.560,318.978 44.837 C 319.244 45.092,319.505 45.560,319.569 45.897 C 319.661 46.390,319.754 46.500,320.080 46.500 C 320.390 46.500,320.489 46.601,320.531 46.958 C 320.571 47.313,320.683 47.428,321.023 47.468 C 321.358 47.506,321.485 47.634,321.560 48.009 L 321.658 48.500 324.379 48.500 C 327.191 48.500,327.500 48.431,327.500 47.800 C 327.500 47.622,327.622 47.500,327.800 47.500 C 328.511 47.500,328.500 47.712,328.500 33.401 C 328.500 21.063,328.474 19.692,328.236 19.601 C 328.091 19.546,327.641 19.500,327.236 19.500 C 326.571 19.500,326.500 19.462,326.500 19.101 C 326.500 18.215,322.819 18.203,322.597 19.088 C 322.529 19.358,322.359 19.494,322.041 19.531 L 321.583 19.583 321.540 27.142 C 321.501 33.934,321.470 34.691,321.235 34.601 C 321.091 34.545,320.866 34.500,320.736 34.500 C 320.570 34.500,320.499 34.291,320.497 33.792 C 320.494 32.966,320.375 32.729,319.918 32.642 C 319.701 32.601,319.556 32.407,319.500 32.081 C 319.433 31.688,319.319 31.572,318.958 31.531 C 318.540 31.483,318.500 31.416,318.497 30.781 C 318.494 29.966,318.373 29.728,317.917 29.643 C 317.696 29.602,317.565 29.424,317.530 29.117 C 317.488 28.756,317.369 28.632,316.988 28.556 C 316.542 28.467,316.500 28.399,316.500 27.762 C 316.500 27.014,316.278 26.667,315.800 26.667 C 315.577 26.667,315.500 26.537,315.500 26.162 C 315.500 25.736,315.423 25.643,315.000 25.558 C 314.542 25.467,314.500 25.401,314.497 24.771 C 314.494 23.966,314.372 23.728,313.917 23.643 C 313.718 23.605,313.561 23.422,313.527 23.187 C 313.491 22.933,313.300 22.729,312.986 22.610 C 312.614 22.470,312.500 22.321,312.500 21.976 C 312.500 21.698,312.309 21.335,312.000 21.026 C 311.725 20.751,311.500 20.373,311.500 20.185 C 311.500 19.750,311.028 19.500,310.204 19.500 C 309.683 19.500,309.518 19.422,309.375 19.108 C 309.102 18.510,307.258 18.266,306.762 18.762 M238.360 26.000 C 238.574 26.290,238.882 26.500,239.094 26.500 C 239.365 26.500,239.484 26.627,239.558 27.000 C 239.655 27.483,239.689 27.500,240.579 27.500 L 241.500 27.500 241.500 28.736 C 241.500 30.242,241.588 30.500,242.101 30.500 L 242.500 30.500 242.500 33.500 C 242.500 35.989,242.459 36.500,242.262 36.500 C 241.812 36.500,241.500 37.008,241.500 37.741 C 241.500 38.574,239.733 40.667,239.030 40.667 C 238.788 40.667,238.639 40.801,238.568 41.083 L 238.464 41.500 236.000 41.500 L 233.536 41.500 233.432 41.083 C 233.364 40.814,233.210 40.667,232.997 40.667 C 232.646 40.667,231.468 39.590,231.278 39.096 C 231.216 38.934,231.015 38.763,230.832 38.715 C 230.555 38.642,230.500 38.487,230.499 37.772 C 230.499 36.918,230.034 35.833,229.669 35.833 C 229.398 35.833,229.445 31.217,229.718 31.050 C 230.193 30.760,230.500 30.071,230.500 29.296 C 230.500 28.641,230.553 28.500,230.800 28.500 C 231.177 28.500,231.500 28.186,231.500 27.818 C 231.500 27.657,231.677 27.492,231.914 27.432 C 232.166 27.369,232.368 27.170,232.430 26.924 C 232.500 26.643,232.667 26.503,232.974 26.468 C 233.317 26.428,233.429 26.314,233.469 25.958 L 233.522 25.500 235.756 25.500 L 237.990 25.500 238.360 26.000 M264.308 25.937 C 264.816 26.177,265.513 26.411,265.857 26.458 C 266.382 26.528,266.500 26.619,266.588 27.021 C 266.675 27.415,266.779 27.500,267.180 27.500 C 267.557 27.500,267.667 27.576,267.667 27.837 C 267.667 28.029,267.836 28.251,268.061 28.353 C 268.400 28.508,268.469 28.688,268.556 29.641 C 268.639 30.547,268.734 30.817,269.079 31.117 C 269.700 31.658,269.738 35.483,269.125 35.752 C 268.708 35.935,268.550 36.465,268.520 37.780 C 268.502 38.536,268.454 38.650,268.132 38.697 C 267.899 38.730,267.728 38.903,267.667 39.167 C 267.598 39.465,267.442 39.598,267.118 39.636 C 266.777 39.676,266.667 39.780,266.667 40.064 C 266.667 40.386,266.542 40.461,265.792 40.595 C 265.129 40.712,264.877 40.841,264.752 41.125 C 264.599 41.475,264.485 41.500,263.044 41.500 L 261.500 41.500 261.500 33.500 L 261.500 25.500 262.442 25.500 C 263.113 25.500,263.651 25.626,264.308 25.937 " stroke="none" fill="#fcfcfc" fill-rule="evenodd"></path><path id="path1" d="M65.762 18.762 C 65.618 18.906,65.500 19.126,65.500 19.251 C 65.500 19.376,65.294 19.502,65.042 19.531 C 64.682 19.572,64.572 19.682,64.531 20.042 C 64.496 20.345,64.380 20.500,64.189 20.500 C 63.678 20.500,63.500 20.870,63.500 21.936 C 63.500 23.232,63.602 23.500,64.093 23.500 C 64.451 23.500,64.487 23.579,64.533 24.458 L 64.583 25.417 68.037 25.462 L 71.491 25.507 71.537 36.767 C 71.582 47.693,71.593 48.034,71.907 48.263 C 72.336 48.577,77.990 48.610,78.300 48.300 C 78.452 48.148,78.500 45.367,78.500 36.800 L 78.500 25.500 82.000 25.500 C 84.222 25.500,85.500 25.439,85.500 25.333 C 85.500 25.242,85.620 25.167,85.766 25.167 C 85.912 25.167,86.070 25.017,86.118 24.833 C 86.166 24.650,86.272 24.500,86.353 24.500 C 86.434 24.500,86.500 23.453,86.500 22.173 C 86.500 19.543,86.479 19.500,85.178 19.500 C 84.574 19.500,84.500 19.456,84.500 19.101 C 84.500 18.882,84.381 18.657,84.236 18.601 C 83.559 18.341,66.030 18.494,65.762 18.762 M89.762 18.762 C 89.618 18.906,89.500 19.131,89.500 19.262 C 89.500 19.413,89.325 19.500,89.022 19.500 C 88.760 19.500,88.347 19.655,88.106 19.845 L 87.667 20.191 87.667 33.682 L 87.667 47.174 88.066 47.356 C 88.305 47.464,88.505 47.732,88.562 48.019 L 88.658 48.500 97.990 48.500 L 107.322 48.500 107.911 47.911 L 108.500 47.322 108.500 44.990 L 108.500 42.658 108.000 42.558 C 107.621 42.482,107.500 42.367,107.500 42.080 C 107.500 41.510,107.397 41.500,101.236 41.500 L 95.500 41.500 95.500 39.500 L 95.500 37.500 99.987 37.500 L 104.474 37.500 104.987 36.987 C 105.326 36.648,105.500 36.309,105.500 35.987 C 105.500 35.719,105.575 35.500,105.667 35.500 C 106.723 35.500,106.803 32.177,105.756 31.775 C 105.607 31.718,105.500 31.474,105.500 31.190 C 105.500 30.500,105.499 30.500,100.236 30.500 L 95.500 30.500 95.500 28.006 L 95.500 25.512 101.742 25.464 C 106.583 25.427,108.032 25.368,108.200 25.200 C 108.353 25.047,108.433 24.246,108.471 22.457 C 108.533 19.576,108.501 19.500,107.218 19.500 C 106.572 19.500,106.500 19.460,106.500 19.101 C 106.500 18.882,106.381 18.657,106.236 18.601 C 105.562 18.342,90.030 18.494,89.762 18.762 M114.311 18.752 C 114.070 18.883,113.833 19.094,113.784 19.222 C 113.733 19.354,113.359 19.491,112.914 19.542 C 111.470 19.704,111.589 18.498,111.536 33.464 C 111.485 47.799,111.473 47.500,112.075 47.500 C 112.391 47.500,112.489 47.599,112.531 47.958 L 112.583 48.417 115.500 48.417 L 118.417 48.417 118.500 40.667 C 118.546 36.404,118.637 33.048,118.703 33.208 C 118.769 33.369,118.966 33.500,119.140 33.500 C 119.394 33.500,119.479 33.663,119.565 34.314 C 119.658 35.016,119.742 35.157,120.170 35.335 C 120.475 35.461,120.667 35.663,120.667 35.857 C 120.667 36.033,120.852 36.258,121.083 36.364 C 121.313 36.468,121.500 36.688,121.500 36.852 C 121.500 37.335,121.855 37.976,122.276 38.252 C 122.510 38.405,122.667 38.671,122.667 38.917 C 122.667 39.211,122.780 39.355,123.066 39.427 C 123.388 39.508,123.488 39.671,123.577 40.265 C 123.697 41.063,124.223 41.500,125.067 41.500 C 125.457 41.500,125.487 41.561,125.533 42.458 C 125.581 43.366,125.608 43.419,126.042 43.469 C 126.398 43.510,126.500 43.610,126.500 43.917 C 126.500 44.554,126.812 45.192,127.169 45.286 C 127.382 45.341,127.500 45.513,127.500 45.769 C 127.500 46.253,128.693 47.500,129.156 47.500 C 129.383 47.500,129.493 47.635,129.531 47.958 L 129.583 48.417 132.204 48.463 C 135.240 48.516,135.500 48.413,135.500 47.167 C 135.500 46.636,135.561 46.500,135.800 46.500 C 136.509 46.500,136.500 46.664,136.500 33.379 L 136.500 20.658 136.000 20.558 C 135.584 20.475,135.500 20.378,135.500 19.979 C 135.500 19.558,135.440 19.500,135.000 19.500 C 134.584 19.500,134.500 19.433,134.500 19.101 C 134.500 18.575,134.250 18.500,132.498 18.500 C 130.996 18.500,130.500 18.686,130.500 19.251 C 130.500 19.376,130.294 19.502,130.042 19.531 L 129.583 19.583 129.540 27.142 C 129.501 33.934,129.470 34.691,129.235 34.601 C 129.091 34.545,128.866 34.500,128.736 34.500 C 128.592 34.500,128.500 34.329,128.500 34.060 C 128.500 33.788,128.309 33.437,128.000 33.142 C 127.661 32.817,127.500 32.502,127.500 32.161 C 127.500 31.736,127.423 31.643,127.000 31.558 C 126.580 31.474,126.500 31.380,126.500 30.966 C 126.500 30.642,126.330 30.304,126.000 29.974 C 125.725 29.699,125.500 29.326,125.500 29.145 C 125.500 28.929,125.328 28.756,125.000 28.642 C 124.621 28.510,124.500 28.365,124.500 28.043 C 124.500 27.790,124.299 27.428,124.000 27.142 C 123.668 26.825,123.500 26.500,123.500 26.178 C 123.500 25.775,123.416 25.675,123.000 25.583 C 122.651 25.507,122.500 25.374,122.500 25.145 C 122.500 24.725,122.042 23.833,121.826 23.833 C 121.736 23.833,121.536 23.571,121.383 23.250 C 121.216 22.900,120.984 22.667,120.802 22.667 C 120.582 22.667,120.500 22.540,120.500 22.198 C 120.500 21.871,120.349 21.618,120.000 21.360 C 119.699 21.137,119.500 20.839,119.500 20.610 C 119.500 19.846,119.146 19.626,117.777 19.538 C 116.586 19.462,116.500 19.431,116.500 19.079 C 116.500 18.466,115.196 18.271,114.311 18.752 M140.762 18.762 C 140.618 18.906,140.500 19.131,140.500 19.262 C 140.500 19.413,140.325 19.500,140.022 19.500 C 138.878 19.500,138.651 19.967,138.703 22.224 C 138.747 24.131,138.772 24.260,139.117 24.411 C 139.330 24.505,139.506 24.751,139.534 24.995 L 139.583 25.417 144.583 25.462 C 148.714 25.500,149.511 25.544,149.167 25.716 C 148.855 25.871,148.711 26.124,148.596 26.716 C 148.476 27.338,148.360 27.529,148.059 27.604 C 147.779 27.675,147.645 27.863,147.562 28.304 C 147.496 28.659,147.253 29.080,146.974 29.325 C 146.672 29.590,146.500 29.905,146.500 30.192 C 146.500 30.529,146.407 30.657,146.136 30.697 C 145.910 30.730,145.729 30.912,145.659 31.178 C 145.596 31.414,145.352 31.799,145.117 32.035 C 144.881 32.270,144.638 32.734,144.576 33.065 C 144.485 33.550,144.388 33.667,144.077 33.667 C 143.734 33.667,143.678 33.769,143.577 34.574 C 143.483 35.328,143.404 35.490,143.110 35.532 C 142.890 35.564,142.693 35.772,142.587 36.083 C 142.493 36.358,142.248 36.720,142.042 36.887 C 141.825 37.063,141.623 37.461,141.564 37.832 C 141.487 38.315,141.368 38.497,141.083 38.569 C 140.852 38.626,140.660 38.838,140.592 39.107 C 140.531 39.351,140.298 39.694,140.074 39.871 C 139.821 40.070,139.627 40.437,139.563 40.841 C 139.495 41.266,139.353 41.524,139.151 41.588 C 138.258 41.872,138.212 46.967,139.099 47.371 C 139.316 47.470,139.529 47.753,139.588 48.023 L 139.693 48.500 149.397 48.500 C 156.721 48.500,159.149 48.451,159.300 48.300 C 159.545 48.055,159.579 42.216,159.337 41.833 C 159.204 41.622,158.337 41.570,153.798 41.500 C 150.838 41.454,148.574 41.359,148.766 41.288 C 149.168 41.141,149.500 40.510,149.500 39.893 C 149.500 39.604,149.610 39.440,149.846 39.378 C 150.236 39.276,150.500 38.716,150.500 37.989 C 150.500 37.557,150.558 37.500,151.000 37.500 L 151.500 37.500 151.500 36.500 C 151.500 35.519,151.509 35.500,151.960 35.500 C 152.278 35.500,152.472 35.384,152.585 35.125 C 152.676 34.919,152.919 34.676,153.125 34.585 C 153.387 34.470,153.500 34.279,153.500 33.948 C 153.500 33.644,153.679 33.295,154.000 32.974 C 154.322 32.652,154.500 32.305,154.500 31.998 C 154.500 31.603,154.578 31.513,154.958 31.469 C 155.392 31.419,155.419 31.366,155.467 30.458 C 155.516 29.520,155.527 29.500,156.008 29.500 C 156.441 29.500,156.500 29.441,156.500 29.011 C 156.500 28.602,156.574 28.514,156.958 28.469 C 157.392 28.419,157.419 28.366,157.467 27.458 C 157.516 26.520,157.527 26.500,158.008 26.500 C 158.444 26.500,158.500 26.443,158.500 26.000 C 158.500 25.630,158.578 25.500,158.800 25.500 C 159.428 25.500,159.500 25.187,159.500 22.473 C 159.500 19.514,159.494 19.500,158.204 19.500 C 157.682 19.500,157.518 19.422,157.374 19.107 C 157.107 18.521,156.804 18.500,148.574 18.500 C 141.932 18.500,140.992 18.532,140.762 18.762 M163.700 18.700 C 163.590 18.810,163.500 19.021,163.500 19.170 C 163.500 19.364,163.256 19.483,162.625 19.595 C 161.459 19.802,161.542 18.740,161.520 33.697 C 161.500 46.969,161.524 47.500,162.151 47.500 C 162.384 47.500,162.493 47.632,162.531 47.958 L 162.583 48.417 165.542 48.462 C 168.074 48.501,168.500 48.472,168.500 48.259 C 168.500 48.122,168.725 47.844,169.000 47.640 L 169.500 47.271 169.497 33.677 C 169.496 26.200,169.434 19.988,169.360 19.871 C 169.286 19.754,168.837 19.612,168.362 19.556 C 167.609 19.466,167.500 19.406,167.500 19.078 C 167.500 18.871,167.381 18.657,167.236 18.601 C 166.742 18.411,163.909 18.491,163.700 18.700 M176.974 18.612 C 176.822 18.652,176.653 18.865,176.598 19.084 C 176.509 19.439,176.392 19.489,175.541 19.533 L 174.583 19.583 174.537 33.667 C 174.512 41.412,174.532 47.919,174.582 48.125 C 174.698 48.605,180.500 48.733,180.500 48.255 C 180.500 48.120,180.725 47.844,181.000 47.640 L 181.500 47.271 181.500 40.385 L 181.500 33.500 181.992 33.500 C 182.473 33.500,182.484 33.520,182.533 34.458 C 182.581 35.366,182.608 35.419,183.042 35.469 C 183.394 35.510,183.500 35.611,183.500 35.907 C 183.500 36.791,183.710 37.338,184.085 37.432 C 184.368 37.503,184.487 37.686,184.564 38.168 C 184.685 38.922,185.314 39.500,186.014 39.500 C 186.468 39.500,186.485 39.530,186.533 40.458 C 186.581 41.366,186.608 41.419,187.042 41.469 C 187.428 41.514,187.500 41.600,187.500 42.024 C 187.500 42.359,187.666 42.692,188.000 43.026 C 188.275 43.301,188.500 43.696,188.500 43.905 C 188.500 44.145,188.867 44.654,189.500 45.293 C 190.056 45.854,190.500 46.451,190.500 46.638 C 190.500 47.260,190.691 47.500,191.184 47.500 C 191.587 47.500,191.667 47.569,191.667 47.913 C 191.667 48.475,191.941 48.521,194.917 48.464 L 197.417 48.417 197.468 47.968 C 197.508 47.622,197.622 47.508,197.968 47.468 L 198.417 47.417 198.417 33.500 L 198.417 19.583 197.981 19.533 C 197.719 19.502,197.475 19.329,197.370 19.098 C 196.979 18.240,192.667 18.237,192.667 19.095 C 192.667 19.406,192.564 19.489,192.125 19.531 L 191.583 19.583 191.540 27.096 L 191.497 34.608 190.998 34.535 C 190.515 34.464,190.500 34.434,190.500 33.560 C 190.500 32.695,190.480 32.654,190.009 32.560 C 189.634 32.485,189.506 32.358,189.468 32.023 C 189.428 31.683,189.313 31.571,188.958 31.531 C 188.521 31.480,188.500 31.437,188.500 30.568 C 188.500 29.694,188.481 29.654,188.009 29.560 C 187.634 29.485,187.506 29.358,187.468 29.023 C 187.428 28.683,187.313 28.571,186.958 28.531 C 186.526 28.481,186.500 28.430,186.500 27.641 C 186.500 26.867,186.463 26.790,186.008 26.619 C 185.667 26.490,185.500 26.302,185.466 26.008 C 185.428 25.684,185.308 25.571,184.958 25.531 C 184.526 25.481,184.500 25.430,184.500 24.641 C 184.500 23.864,184.464 23.791,184.000 23.616 C 183.662 23.488,183.500 23.313,183.500 23.075 C 183.500 22.881,183.277 22.503,183.005 22.236 C 182.732 21.969,182.506 21.600,182.502 21.417 C 182.492 20.957,182.310 20.716,181.917 20.643 C 181.711 20.604,181.561 20.421,181.525 20.165 C 181.448 19.620,181.239 19.506,180.310 19.503 C 179.636 19.500,179.523 19.449,179.437 19.105 C 179.307 18.586,178.033 18.331,176.974 18.612 " stroke="none" fill="#040404" fill-rule="evenodd"></path><path id="path2" d="" stroke="none" fill="#c010080" fill-rule="evenodd"></path><path id="path3" d="" stroke="none" fill="#408480" fill-rule="evenodd"></path><path id="path4" d="" stroke="none" fill="#400484" fill-rule="evenodd"></path></g></svg>